# xmcd
#
# Track frame offsets: 
#        150
#        13465
#        26821
#        36960
#        44753
#        56247
#        77803
#        88467
#        98742
#        112093
#        121259
#        138154
#        148920
#        166941
#        177051
#        191680
#        201674
#        209733
#        221243
#
# Disc length: 3097 seconds
#
# Revision: 0
# Processed by: cddbd v1.5.2PL0 Copyright (c) Steve Scherf et al.
# Submitted via: ExactAudioCopy v1.0b3
#
DISCID=370c1713
DTITLE=Reverend Pearly Brown - It's A Mean Old World To Try To Live In
DYEAR=2005
DGENRE=Gospel Blues
TTITLE0=How Long Has It Been Since You Been Home
TTITLE1=The Day Is Past And Gine
TTITLE2=It's A Mean Old World To Try To Live In
TTITLE3=What A Time
TTITLE4=Pure Religion
TTITLE5=Help Me To Understand
TTITLE6=How About You
TTITLE7=Nothin' But Joy
TTITLE8=Another Child Of God Gone Home
TTITLE9=Keep Your Lamp Trimmed And Burnin'
TTITLE10=Please Mommy Stay Home With Me
TTITLE11=Peace Will Prevail
TTITLE12=Steal Away
TTITLE13=You Got To Move
TTITLE14=I Know The Lord Will Make A Way
TTITLE15=Sometimes I Feel Like My Time Ain't Long
TTITLE16=Motherless Children
TTITLE17=When I Take My Vacation
TTITLE18=Goodbye
EXTD=
EXTT0=
EXTT1=
EXTT2=
EXTT3=
EXTT4=
EXTT5=
EXTT6=
EXTT7=
EXTT8=
EXTT9=
EXTT10=
EXTT11=
EXTT12=
EXTT13=
EXTT14=
EXTT15=
EXTT16=
EXTT17=
EXTT18=
PLAYORDER=
